<?xml version="1.0" encoding="UTF-8"?>
<svg xmlns="http://www.w3.org/2000/svg" xmlns:xlink="http://www.w3.org/1999/xlink" width="284pt" height="223pt" viewBox="0 0 284 223">
<defs>
<g>
<g id="glyph-0-0">
<path d="M 5.96875 0 C 5.96875 -0.296875 6.09375 -1.234375 6.25 -1.96875 L 5.875 -1.96875 L 5.671875 -1.234375 C 5.5625 -0.84375 5.46875 -0.640625 5.359375 -0.59375 C 5.21875 -0.53125 4.296875 -0.46875 3.640625 -0.46875 C 2.96875 -0.46875 2.671875 -0.484375 1.9375 -0.546875 C 1.9375 -0.6875 1.9375 -0.828125 1.953125 -0.96875 L 3.0625 -7.328125 C 3.140625 -7.78125 3.234375 -7.859375 3.671875 -7.90625 L 4.171875 -7.9375 L 4.203125 -8.265625 C 3.734375 -8.25 3.25 -8.234375 2.765625 -8.234375 C 2.234375 -8.234375 1.703125 -8.25 1.15625 -8.265625 L 1.125 -7.9375 L 1.6875 -7.90625 C 1.96875 -7.90625 2.109375 -7.8125 2.109375 -7.609375 C 2.109375 -7.421875 2.0625 -7.078125 2 -6.6875 L 0.96875 -0.65625 C 0.9375 -0.4375 0.78125 -0.359375 0.25 -0.28125 L 0.1875 0.03125 C 0.796875 0.015625 1.421875 0 2.03125 0 C 2.921875 0 3.828125 0.03125 4.71875 0.03125 C 5.21875 0.03125 5.5625 0.03125 5.96875 0 Z M 5.96875 0 "/>
</g>
<g id="glyph-0-1">
<path d="M 7.71875 0.03125 L 7.71875 -0.328125 L 7.484375 -0.328125 C 7.203125 -0.328125 6.96875 -0.46875 6.71875 -0.78125 L 3.78125 -4.390625 L 7.265625 -7.65625 C 7.453125 -7.828125 7.703125 -7.953125 7.90625 -7.953125 L 8.15625 -7.953125 L 8.15625 -8.265625 C 7.890625 -8.25 7.625 -8.234375 7.34375 -8.234375 C 7.078125 -8.234375 6.8125 -8.25 6.546875 -8.265625 L 6.546875 -7.921875 C 6.546875 -7.828125 6.4375 -7.671875 6.09375 -7.34375 L 4.5625 -5.78125 C 4.046875 -5.25 3.546875 -4.8125 2.78125 -4.21875 L 3.328125 -7.328125 C 3.40625 -7.78125 3.484375 -7.859375 3.9375 -7.90625 L 4.4375 -7.9375 L 4.46875 -8.265625 C 4.015625 -8.25 3.5625 -8.234375 3.109375 -8.234375 C 2.546875 -8.234375 1.984375 -8.25 1.421875 -8.265625 L 1.390625 -7.9375 L 1.953125 -7.90625 C 2.234375 -7.90625 2.359375 -7.8125 2.359375 -7.59375 C 2.359375 -7.421875 2.328125 -7.078125 2.265625 -6.6875 L 1.390625 -1.5 C 1.1875 -0.390625 1.171875 -0.375 0.6875 -0.328125 L 0.203125 -0.296875 L 0.15625 0.03125 C 0.6875 0.015625 1.203125 0 1.734375 0 C 2.21875 0 2.71875 0.015625 3.203125 0.03125 L 3.234375 -0.296875 L 2.65625 -0.328125 C 2.328125 -0.359375 2.21875 -0.4375 2.21875 -0.6875 C 2.21875 -0.75 2.234375 -0.890625 2.25 -0.9375 L 2.765625 -4.0625 C 4.546875 -2.015625 4.828125 -1.671875 6.078125 0.03125 C 6.359375 0.015625 6.640625 0 6.90625 0 C 7.1875 0 7.453125 0.015625 7.71875 0.03125 Z M 7.71875 0.03125 "/>
</g>
<g id="glyph-0-2">
<path d="M 8.359375 -4.59375 C 8.359375 -5.265625 8.046875 -5.765625 7.609375 -5.765625 C 7.453125 -5.765625 7.3125 -5.71875 7.21875 -5.625 L 6.625 -5.0625 L 6.75 -4.828125 C 6.859375 -4.90625 6.96875 -4.9375 7.078125 -4.9375 C 7.40625 -4.9375 7.59375 -4.65625 7.59375 -4.1875 C 7.59375 -2.453125 6.4375 -0.46875 5.421875 -0.46875 C 5.0625 -0.46875 4.8125 -0.9375 4.8125 -1.609375 C 4.8125 -2.15625 4.921875 -2.953125 5.0625 -3.46875 L 5.6875 -5.671875 L 5.609375 -5.765625 L 4.71875 -5.5 L 4.375 -3.71875 C 4.234375 -2.96875 4.0625 -2.5 3.71875 -1.859375 C 3.234375 -0.953125 2.78125 -0.46875 2.421875 -0.46875 C 2.015625 -0.46875 1.734375 -0.9375 1.734375 -1.625 C 1.734375 -3.046875 2.21875 -4.203125 3.40625 -5.546875 L 3.28125 -5.765625 C 3.046875 -5.65625 2.890625 -5.625 2.5625 -5.625 C 2.0625 -5.625 1.578125 -5.671875 1.09375 -5.703125 C 0.9375 -5.71875 0.84375 -5.671875 0.703125 -5.625 C 0.53125 -5.296875 0.40625 -4.859375 0.25 -4.203125 L 0.515625 -4.203125 L 0.71875 -4.703125 C 0.796875 -4.90625 1.046875 -5.046875 1.328125 -5.046875 C 1.546875 -5.046875 1.765625 -5.015625 2 -5.015625 C 2.25 -5.015625 2.40625 -5.03125 2.703125 -5.0625 C 2.59375 -4.90625 2.46875 -4.78125 2.34375 -4.640625 C 1.265625 -3.375 0.859375 -2.515625 0.859375 -1.5 C 0.859375 -0.53125 1.28125 0.125 1.90625 0.125 C 2.671875 0.125 3.296875 -0.53125 4.1875 -2.234375 C 4.078125 -1.703125 4.046875 -1.40625 4.046875 -1.140625 C 4.046875 -0.375 4.390625 0.125 4.921875 0.125 C 5.890625 0.125 7.140625 -1.078125 7.890625 -2.71875 C 8.15625 -3.3125 8.359375 -4.109375 8.359375 -4.59375 Z M 8.359375 -4.59375 "/>
</g>
<g id="glyph-0-3">
<path d="M 4.40625 -4.359375 C 4.4375 -4.8125 4.5 -5.203125 4.59375 -5.6875 C 4.453125 -5.75 4.40625 -5.765625 4.34375 -5.765625 C 3.984375 -5.765625 3.609375 -5.46875 3.171875 -4.859375 C 2.765625 -4.28125 2.359375 -3.703125 2.0625 -3.0625 L 2.359375 -4.5625 C 2.421875 -4.828125 2.515625 -5.109375 2.515625 -5.375 C 2.515625 -5.625 2.421875 -5.765625 2.234375 -5.765625 C 1.984375 -5.765625 1.53125 -5.515625 0.640625 -4.875 L 0.3125 -4.640625 L 0.390625 -4.40625 L 0.78125 -4.65625 C 1.109375 -4.859375 1.25 -4.921875 1.34375 -4.921875 C 1.46875 -4.921875 1.546875 -4.8125 1.546875 -4.65625 C 1.546875 -3.96875 1.046875 -1.5 0.5625 0.03125 L 0.6875 0.109375 C 0.9375 0.03125 1.203125 -0.03125 1.484375 -0.078125 L 1.796875 -1.5 C 2.015625 -2.5 2.28125 -3.125 2.8125 -3.8125 C 3.21875 -4.34375 3.53125 -4.59375 3.796875 -4.59375 C 3.984375 -4.59375 4.09375 -4.53125 4.234375 -4.359375 Z M 4.40625 -4.359375 "/>
</g>
<g id="glyph-0-4">
<path d="M 7.296875 -1.234375 L 7.171875 -1.3125 C 6.046875 -0.625 5.421875 -0.421875 4.5 -0.421875 C 2.609375 -0.421875 1.59375 -1.5625 1.59375 -3.6875 C 1.59375 -5.03125 2 -6.203125 2.71875 -6.9375 C 3.28125 -7.515625 4.046875 -7.8125 5 -7.8125 C 5.859375 -7.8125 6.46875 -7.640625 7.140625 -7.203125 L 7.140625 -6.203125 L 7.453125 -6.203125 C 7.515625 -6.890625 7.609375 -7.40625 7.78125 -7.953125 C 6.859375 -8.296875 6.1875 -8.4375 5.453125 -8.4375 C 4.46875 -8.4375 3.484375 -8.140625 2.65625 -7.578125 C 1.25 -6.640625 0.53125 -5.21875 0.53125 -3.390625 C 0.53125 -1.078125 1.8125 0.21875 4.09375 0.21875 C 5.25 0.21875 6.078125 -0.0625 7.171875 -0.796875 Z M 7.296875 -1.234375 "/>
</g>
<g id="glyph-0-5">
<path d="M 8 -7.484375 L 8.0625 -8.328125 C 7.203125 -8.109375 6.546875 -7.609375 5.671875 -6.40625 C 4.921875 -5.421875 4.46875 -4.59375 4.140625 -3.703125 C 3.234375 -7.359375 2.671875 -8.421875 1.5625 -8.421875 L 0.625 -7.734375 L 0.65625 -7.453125 C 0.9375 -7.546875 1.0625 -7.59375 1.1875 -7.59375 C 1.75 -7.59375 2.1875 -7.046875 2.671875 -5.703125 C 2.96875 -4.90625 3.421875 -3.265625 3.421875 -3.078125 L 3.15625 -1.5 C 2.96875 -0.40625 2.9375 -0.375 2.46875 -0.328125 L 1.890625 -0.296875 L 1.84375 0.03125 C 2.390625 0.015625 2.953125 0 3.5 0 C 4 0 4.484375 0.015625 4.96875 0.03125 L 5.015625 -0.296875 L 4.421875 -0.328125 C 4.09375 -0.359375 4 -0.4375 4 -0.6875 C 4 -0.75 4 -0.875 4.015625 -0.9375 L 4.328125 -2.9375 C 4.4375 -3.59375 5.21875 -5.015625 6.09375 -6.125 C 6.796875 -7 7.296875 -7.359375 8 -7.484375 Z M 8 -7.484375 "/>
</g>
<g id="glyph-1-0">
<path d="M 4.078125 -3.203125 C 4.078125 -5.125 3.5 -6.046875 2.3125 -6.046875 C 0.953125 -6.046875 0.25 -4.96875 0.25 -2.84375 C 0.25 -1.8125 0.4375 -0.921875 0.75 -0.5 C 1.046875 -0.0625 1.546875 0.171875 2.09375 0.171875 C 3.40625 0.171875 4.078125 -0.96875 4.078125 -3.203125 Z M 3.34375 -2.765625 C 3.34375 -0.90625 3 -0.125 2.203125 -0.125 C 1.34375 -0.125 0.984375 -1.015625 0.984375 -3.15625 C 0.984375 -5 1.3125 -5.734375 2.140625 -5.734375 C 3 -5.734375 3.34375 -4.875 3.34375 -2.765625 Z M 3.34375 -2.765625 "/>
</g>
<g id="glyph-1-1">
<path d="M 3.65625 0.03125 L 3.65625 -0.234375 L 3.203125 -0.265625 C 2.71875 -0.296875 2.640625 -0.390625 2.640625 -0.84375 L 2.640625 -6.046875 L 2.515625 -6.078125 C 1.953125 -5.78125 1.328125 -5.515625 0.53125 -5.234375 L 0.59375 -4.859375 L 0.671875 -4.859375 C 1.0625 -5.046875 1.453125 -5.21875 1.828125 -5.375 C 1.890625 -5.375 1.90625 -5.296875 1.90625 -5.09375 L 1.90625 -0.84375 C 1.90625 -0.390625 1.8125 -0.296875 1.328125 -0.265625 L 0.84375 -0.234375 L 0.84375 0.03125 C 1.328125 0.015625 1.8125 0 2.28125 0 C 2.75 0 3.203125 0.015625 3.65625 0.03125 Z M 3.65625 0.03125 "/>
</g>
<g id="glyph-2-0">
<path d="M 0.78125 -4.140625 L 7.21875 -4.140625 L 7.21875 -4.859375 L 0.78125 -4.859375 Z M 0.78125 -1.609375 L 7.21875 -1.609375 L 7.21875 -2.3125 L 0.78125 -2.3125 Z M 0.78125 -1.609375 "/>
</g>
<g id="glyph-3-0">
<path d="M 11.0625 0.03125 L 11.0625 -0.328125 L 10.5 -0.359375 C 9.9375 -0.390625 9.890625 -0.484375 9.890625 -1.4375 L 9.890625 -6.796875 C 9.890625 -7.734375 9.9375 -7.84375 10.5 -7.875 L 11 -7.90625 L 11 -8.265625 C 10.625 -8.25 10.25 -8.234375 9.890625 -8.234375 C 9.5 -8.234375 9.125 -8.25 8.75 -8.265625 L 5.625 -1.625 L 2.46875 -8.265625 C 2.078125 -8.25 1.703125 -8.234375 1.328125 -8.234375 C 0.9375 -8.234375 0.578125 -8.25 0.1875 -8.265625 L 0.1875 -7.90625 L 0.71875 -7.875 C 1.265625 -7.84375 1.328125 -7.734375 1.328125 -6.796875 L 1.328125 -1.4375 C 1.328125 -0.5 1.265625 -0.390625 0.71875 -0.359375 L 0.1875 -0.328125 L 0.1875 0.03125 C 0.65625 0.015625 1.109375 0 1.578125 0 C 2.0625 0 2.53125 0.015625 3.015625 0.03125 L 3.015625 -0.328125 L 2.484375 -0.359375 C 1.9375 -0.390625 1.875 -0.5 1.875 -1.4375 L 1.875 -6.90625 L 5.21875 0.15625 L 5.453125 0.15625 C 5.75 -0.484375 5.84375 -0.828125 6.09375 -1.359375 C 6.984375 -3.203125 7.8125 -5.109375 8.75 -6.90625 L 8.75 -1.4375 C 8.75 -0.484375 8.703125 -0.40625 8.140625 -0.359375 L 7.734375 -0.328125 L 7.734375 0.03125 C 8.25 0.015625 8.75 0 9.265625 0 C 9.859375 0 10.46875 0.015625 11.0625 0.03125 Z M 11.0625 0.03125 "/>
</g>
<g id="glyph-3-1">
<path d="M 8 0.03125 L 8 -0.328125 C 7.609375 -0.359375 7.421875 -0.4375 7.265625 -0.640625 L 4.546875 -4.171875 C 5.21875 -4.34375 5.53125 -4.46875 5.921875 -4.75 C 6.546875 -5.1875 6.890625 -5.78125 6.890625 -6.484375 C 6.890625 -7.625 6.109375 -8.265625 4.546875 -8.265625 C 3.84375 -8.265625 3.125 -8.234375 2.421875 -8.234375 C 1.71875 -8.234375 1.046875 -8.25 0.34375 -8.265625 L 0.34375 -7.90625 L 0.84375 -7.875 C 1.390625 -7.84375 1.453125 -7.734375 1.453125 -6.796875 L 1.453125 -1.4375 C 1.453125 -0.484375 1.390625 -0.390625 0.84375 -0.359375 L 0.265625 -0.328125 L 0.265625 0.03125 C 0.84375 0.015625 1.421875 0 2.015625 0 C 2.59375 0 3.171875 0.015625 3.765625 0.03125 L 3.765625 -0.328125 L 3.1875 -0.359375 C 2.640625 -0.390625 2.578125 -0.484375 2.578125 -1.4375 L 2.578125 -7.671875 C 2.984375 -7.765625 3.34375 -7.8125 3.75 -7.8125 C 5 -7.8125 5.6875 -7.25 5.6875 -6.234375 C 5.6875 -5.125 4.8125 -4.4375 3.4375 -4.4375 L 3.078125 -4.4375 L 3.078125 -4.25 C 3.34375 -3.953125 3.4375 -3.828125 3.640625 -3.5625 C 4.53125 -2.359375 5.421875 -1.15625 6.328125 0.03125 C 6.59375 0.015625 6.859375 0 7.140625 0 C 7.421875 0 7.703125 0.015625 8 0.03125 Z M 8 0.03125 "/>
</g>
<g id="glyph-3-2">
<path d="M 7.109375 -8.265625 L 4.53125 -8.234375 L 2.640625 -8.234375 L 0.21875 -8.265625 C 0.28125 -7.59375 0.296875 -7.125 0.296875 -6.34375 L 0.671875 -6.34375 L 0.71875 -7.296875 C 0.734375 -7.578125 0.859375 -7.6875 1.1875 -7.6875 L 3.046875 -7.6875 C 3.078125 -7.28125 3.09375 -7 3.09375 -6.484375 L 3.09375 -1.4375 C 3.09375 -0.484375 3.03125 -0.390625 2.484375 -0.359375 L 1.90625 -0.328125 L 1.90625 0.03125 C 2.5 0.015625 3.078125 0 3.65625 0 C 4.25 0 4.828125 0.015625 5.421875 0.03125 L 5.421875 -0.328125 L 4.84375 -0.359375 C 4.296875 -0.390625 4.234375 -0.484375 4.234375 -1.4375 L 4.234375 -6.484375 C 4.234375 -7.03125 4.25 -7.296875 4.28125 -7.6875 L 6.125 -7.6875 C 6.46875 -7.6875 6.59375 -7.578125 6.609375 -7.296875 L 6.65625 -6.34375 L 7.03125 -6.34375 C 7.03125 -7.125 7.046875 -7.59375 7.109375 -8.265625 Z M 7.109375 -8.265625 "/>
</g>
<g id="glyph-4-0">
<path d="M 7.28125 -2.90625 L 7.28125 -3.578125 L 4.34375 -3.578125 L 4.34375 -6.5 L 3.6875 -6.5 L 3.6875 -3.578125 L 0.75 -3.578125 L 0.75 -2.90625 L 3.6875 -2.90625 L 3.6875 0.03125 L 4.34375 0.03125 L 4.34375 -2.90625 Z M 7.28125 -2.90625 "/>
</g>
<g id="glyph-5-0">
<path d="M 2.75 -3.796875 C 2.75 -4.109375 2.40625 -4.34375 2.109375 -4.34375 C 1.765625 -4.34375 1.609375 -4 1.515625 -3.71875 L 0.546875 -0.921875 C 0.53125 -0.859375 0.46875 -0.6875 0.46875 -0.609375 C 0.46875 -0.53125 0.515625 -0.40625 0.609375 -0.40625 C 0.75 -0.40625 0.90625 -0.609375 0.96875 -0.703125 L 2.484375 -3.109375 C 2.609375 -3.296875 2.75 -3.546875 2.75 -3.796875 Z M 2.75 -3.796875 "/>
</g>
<g id="glyph-6-0">
<path d="M 6.40625 -8.234375 L 4.953125 -8.265625 C 4.09375 -8.25 3.234375 -8.234375 2.359375 -8.234375 C 1.65625 -8.234375 0.96875 -8.25 0.265625 -8.265625 L 0.265625 -7.90625 L 0.84375 -7.875 C 1.390625 -7.84375 1.453125 -7.75 1.453125 -6.796875 L 1.453125 -1.4375 C 1.453125 -0.484375 1.390625 -0.390625 0.84375 -0.359375 L 0.265625 -0.328125 L 0.265625 0.03125 C 0.84375 0.015625 1.421875 0 2.015625 0 C 2.59375 0 3.171875 0.015625 3.765625 0.03125 L 3.765625 -0.328125 L 3.1875 -0.359375 C 2.640625 -0.390625 2.578125 -0.484375 2.578125 -1.4375 L 2.578125 -3.90625 L 4.5 -3.9375 C 5.015625 -3.9375 5.25 -3.890625 5.328125 -3.5 C 5.375 -3.234375 5.390625 -2.796875 5.390625 -2.796875 L 5.75 -2.796875 C 5.71875 -3.234375 5.71875 -3.6875 5.71875 -4.125 C 5.71875 -4.59375 5.71875 -5.046875 5.75 -5.515625 L 5.390625 -5.515625 L 5.328125 -4.890625 C 5.296875 -4.484375 5 -4.4375 4.46875 -4.4375 C 3.828125 -4.4375 3.109375 -4.453125 2.578125 -4.484375 L 2.578125 -7.671875 C 2.9375 -7.75 3.15625 -7.765625 3.859375 -7.765625 C 4.4375 -7.765625 5.109375 -7.703125 5.46875 -7.609375 C 5.765625 -7.53125 5.796875 -7.46875 5.796875 -7.203125 L 5.796875 -6.421875 L 6.21875 -6.421875 C 6.21875 -7.140625 6.28125 -7.703125 6.40625 -8.234375 Z M 6.40625 -8.234375 "/>
</g>
<g id="glyph-6-1">
<path d="M 3.234375 0.03125 L 3.234375 -0.328125 L 2.6875 -0.359375 C 2.28125 -0.375 2.25 -0.46875 2.25 -1.21875 L 2.25 -5.5625 L 2.140625 -5.609375 C 1.53125 -5.359375 0.90625 -5.1875 0.28125 -5.109375 L 0.28125 -4.78125 L 0.71875 -4.78125 C 1.1875 -4.78125 1.25 -4.703125 1.25 -3.90625 L 1.25 -1.21875 C 1.25 -0.46875 1.203125 -0.375 0.796875 -0.359375 L 0.25 -0.328125 L 0.25 0.03125 C 0.75 0.015625 1.25 0 1.75 0 C 2.25 0 2.734375 0.015625 3.234375 0.03125 Z M 2.34375 -7.609375 C 2.34375 -7.953125 2.109375 -8.21875 1.75 -8.21875 C 1.390625 -8.21875 1.140625 -7.96875 1.140625 -7.609375 C 1.140625 -7.25 1.390625 -7.015625 1.75 -7.015625 C 2.109375 -7.015625 2.34375 -7.25 2.34375 -7.609375 Z M 2.34375 -7.609375 "/>
</g>
<g id="glyph-6-2">
<path d="M 6.5 -5.015625 L 6.453125 -5.15625 L 4.75 -5.109375 C 4.3125 -5.46875 3.890625 -5.609375 3.296875 -5.609375 C 2.765625 -5.609375 2.15625 -5.4375 1.671875 -5.15625 C 1 -4.765625 0.65625 -4.1875 0.65625 -3.453125 C 0.65625 -2.5625 1.203125 -1.953125 2.09375 -1.859375 L 1.140625 -1.140625 C 1.03125 -0.953125 0.96875 -0.796875 0.96875 -0.625 C 0.96875 -0.28125 1.1875 -0.09375 1.75 0.078125 L 0.71875 0.640625 C 0.546875 0.734375 0.375 1.171875 0.375 1.546875 C 0.375 2.625 1.453125 3.375 2.96875 3.375 C 4.765625 3.375 6.1875 2.25 6.1875 0.78125 C 6.1875 -0.078125 5.625 -0.671875 4.78125 -0.671875 L 2.875 -0.671875 C 2.25 -0.671875 1.953125 -0.8125 1.953125 -1.140625 C 1.953125 -1.296875 2.0625 -1.421875 2.359375 -1.6875 C 2.4375 -1.75 2.46875 -1.765625 2.515625 -1.8125 C 2.625 -1.8125 2.703125 -1.796875 2.796875 -1.796875 C 3.3125 -1.796875 3.9375 -2.015625 4.4375 -2.359375 C 4.96875 -2.765625 5.234375 -3.234375 5.234375 -3.875 C 5.234375 -4.109375 5.203125 -4.265625 5.109375 -4.515625 L 6.203125 -4.515625 Z M 4.234375 -3.515625 C 4.234375 -2.734375 3.734375 -2.203125 3 -2.203125 C 2.203125 -2.203125 1.65625 -2.828125 1.65625 -3.734375 C 1.65625 -4.65625 2.109375 -5.203125 2.875 -5.203125 C 3.6875 -5.203125 4.234375 -4.53125 4.234375 -3.515625 Z M 5.25 1.21875 C 5.25 2.25 4.296875 3.015625 3.046875 3.015625 C 2.015625 3.015625 1.296875 2.40625 1.296875 1.515625 C 1.296875 0.984375 1.609375 0.5 2.078125 0.28125 C 2.265625 0.203125 2.609375 0.171875 3.4375 0.171875 C 4.78125 0.171875 5.25 0.4375 5.25 1.21875 Z M 5.25 1.21875 "/>
</g>
<g id="glyph-6-3">
<path d="M 6.9375 0.03125 L 6.9375 -0.328125 L 6.453125 -0.359375 C 6.046875 -0.375 6.015625 -0.453125 6.015625 -1.21875 L 6.015625 -5.5625 L 5.90625 -5.609375 C 5.296875 -5.359375 4.671875 -5.1875 4.046875 -5.109375 L 4.046875 -4.78125 L 4.484375 -4.78125 C 4.953125 -4.78125 5.015625 -4.703125 5.015625 -3.90625 L 5.015625 -1.953125 C 5.015625 -1.703125 4.84375 -1.359375 4.5625 -1.09375 C 4.234375 -0.75 3.84375 -0.578125 3.375 -0.578125 C 2.96875 -0.578125 2.625 -0.71875 2.4375 -0.9375 C 2.265625 -1.140625 2.1875 -1.5 2.1875 -2.03125 L 2.1875 -5.5625 L 2.078125 -5.609375 C 1.46875 -5.359375 0.84375 -5.1875 0.21875 -5.109375 L 0.21875 -4.78125 L 0.65625 -4.78125 C 1.140625 -4.78125 1.1875 -4.703125 1.1875 -3.90625 L 1.1875 -1.90625 C 1.1875 -1.0625 1.25 -0.6875 1.46875 -0.390625 C 1.734375 -0.03125 2.1875 0.140625 2.875 0.140625 C 3.40625 0.140625 3.890625 -0.03125 4.203125 -0.328125 L 5.015625 -1.0625 C 5.015625 -0.71875 5 -0.53125 4.953125 0.03125 C 5.296875 0.015625 5.625 0 5.953125 0 C 6.28125 0 6.609375 0.015625 6.9375 0.03125 Z M 6.9375 0.03125 "/>
</g>
<g id="glyph-6-4">
<path d="M 4.46875 -5.46875 C 4.34375 -5.5625 4.125 -5.609375 3.90625 -5.609375 C 3.546875 -5.609375 3.171875 -5.421875 2.921875 -5.109375 L 2.25 -4.328125 L 2.25 -5.5625 L 2.140625 -5.609375 C 1.53125 -5.359375 0.90625 -5.1875 0.28125 -5.109375 L 0.28125 -4.78125 L 0.71875 -4.78125 C 1.1875 -4.78125 1.25 -4.703125 1.25 -3.90625 L 1.25 -1.21875 C 1.25 -0.46875 1.203125 -0.375 0.796875 -0.359375 L 0.25 -0.328125 L 0.25 0.03125 C 0.734375 0.015625 1.234375 0 1.71875 0 C 2.296875 0 2.859375 0.015625 3.4375 0.03125 L 3.4375 -0.328125 L 2.8125 -0.359375 C 2.265625 -0.390625 2.25 -0.4375 2.25 -1.21875 L 2.25 -3.28125 C 2.25 -4 2.71875 -4.59375 3.3125 -4.59375 C 3.671875 -4.59375 3.921875 -4.421875 4.109375 -4.046875 L 4.359375 -4.046875 Z M 4.46875 -5.46875 "/>
</g>
<g id="glyph-6-5">
<path d="M 5.359375 -3.328125 C 5.359375 -4.703125 4.46875 -5.609375 3.125 -5.609375 C 2.6875 -5.609375 2.171875 -5.453125 1.6875 -5.15625 C 0.703125 -4.609375 0.3125 -3.859375 0.3125 -2.625 C 0.3125 -1.859375 0.484375 -1.21875 0.8125 -0.765625 C 1.28125 -0.125 2.09375 0.234375 2.984375 0.234375 C 3.4375 0.234375 3.875 0.140625 4.359375 -0.078125 C 4.6875 -0.203125 4.9375 -0.359375 4.984375 -0.4375 L 5.21875 -0.84375 L 5.0625 -0.953125 C 4.296875 -0.5 4.03125 -0.390625 3.515625 -0.390625 C 2.734375 -0.390625 2.09375 -0.734375 1.75 -1.328125 C 1.53125 -1.71875 1.453125 -2.0625 1.421875 -2.75 L 3.171875 -2.75 C 4 -2.75 4.5 -2.78125 5.328125 -2.921875 C 5.34375 -3.078125 5.359375 -3.1875 5.359375 -3.328125 Z M 4.296875 -3.1875 L 2.953125 -3.15625 C 2.40625 -3.15625 2.09375 -3.171875 1.453125 -3.234375 C 1.453125 -3.796875 1.5 -4.046875 1.65625 -4.359375 C 1.90625 -4.890625 2.421875 -5.21875 2.984375 -5.21875 C 3.375 -5.21875 3.6875 -5.0625 3.90625 -4.734375 C 4.171875 -4.34375 4.296875 -4 4.296875 -3.1875 Z M 4.296875 -3.1875 "/>
</g>
<g id="glyph-6-6">
<path d="M 5 0.03125 L 5 -0.328125 L 4.375 -0.359375 C 3.71875 -0.390625 3.59375 -0.53125 3.59375 -1.140625 L 3.59375 -8.234375 L 3.4375 -8.296875 C 2.65625 -7.890625 1.8125 -7.53125 0.71875 -7.140625 L 0.796875 -6.640625 L 0.921875 -6.640625 C 1.453125 -6.875 1.96875 -7.109375 2.5 -7.34375 C 2.5625 -7.34375 2.59375 -7.234375 2.59375 -6.9375 L 2.59375 -1.140625 C 2.59375 -0.53125 2.46875 -0.390625 1.8125 -0.359375 L 1.140625 -0.328125 L 1.140625 0.03125 C 1.8125 0.015625 2.46875 0 3.125 0 C 3.734375 0 4.375 0.015625 5 0.03125 Z M 5 0.03125 "/>
</g>
<g id="glyph-6-7">
<path d="M 2.1875 -0.640625 C 2.1875 -0.984375 1.859375 -1.328125 1.484375 -1.328125 C 1.125 -1.328125 0.796875 -0.984375 0.796875 -0.640625 C 0.796875 -0.28125 1.125 0.0625 1.46875 0.0625 C 1.859375 0.0625 2.1875 -0.265625 2.1875 -0.640625 Z M 2.1875 -0.640625 "/>
</g>
<g id="glyph-6-8">
<path d="M 8.015625 -1 L 7.90625 -1.125 C 7.15625 -0.640625 6.328125 -0.40625 5.421875 -0.40625 C 3.09375 -0.40625 1.546875 -1.953125 1.546875 -4.3125 C 1.546875 -6.515625 2.90625 -7.96875 4.953125 -7.96875 C 6.125 -7.96875 7.34375 -7.5 7.34375 -7.03125 L 7.34375 -6.171875 L 7.703125 -6.171875 C 7.71875 -6.765625 7.765625 -7.203125 7.9375 -7.984375 C 6.921875 -8.3125 6.046875 -8.46875 5.171875 -8.46875 C 4.140625 -8.46875 3.140625 -8.21875 2.34375 -7.75 C 0.984375 -6.953125 0.265625 -5.703125 0.265625 -4.09375 C 0.265625 -1.5 2.15625 0.234375 4.953125 0.234375 C 5.953125 0.234375 6.84375 0.03125 7.671875 -0.40625 Z M 8.015625 -1 "/>
</g>
<g id="glyph-6-9">
<path d="M 6.84375 0.03125 L 6.84375 -0.328125 L 6.34375 -0.359375 C 5.9375 -0.375 5.90625 -0.453125 5.90625 -1.21875 L 5.90625 -3.53125 C 5.90625 -4.921875 5.25 -5.609375 3.90625 -5.609375 C 3.46875 -5.609375 3.21875 -5.515625 2.96875 -5.3125 L 2.0625 -4.515625 L 2.0625 -8.578125 L 1.953125 -8.671875 C 1.421875 -8.46875 1.03125 -8.375 0.078125 -8.234375 L 0.078125 -7.90625 L 0.75 -7.90625 C 0.96875 -7.90625 1.046875 -7.765625 1.046875 -7.40625 L 1.046875 -1.21875 C 1.046875 -0.46875 1.015625 -0.375 0.609375 -0.359375 L 0.078125 -0.328125 L 0.078125 0.03125 C 0.5625 0.015625 1.0625 0 1.546875 0 C 2.046875 0 2.546875 0.015625 3.03125 0.03125 L 3.03125 -0.328125 L 2.5 -0.359375 C 2.09375 -0.375 2.0625 -0.46875 2.0625 -1.21875 L 2.0625 -3.75 C 2.0625 -4.296875 2.84375 -4.875 3.578125 -4.875 C 4.375 -4.875 4.90625 -4.28125 4.90625 -3.359375 L 4.90625 0.03125 C 5.21875 0.015625 5.53125 0 5.84375 0 C 6.1875 0 6.5 0.015625 6.84375 0.03125 Z M 6.84375 0.03125 "/>
</g>
<g id="glyph-6-10">
<path d="M 5.625 0.03125 L 5.625 -0.328125 L 5.15625 -0.34375 C 4.875 -0.359375 4.828125 -0.453125 4.828125 -1.046875 L 4.828125 -3.234375 C 4.828125 -4.96875 4.328125 -5.609375 2.9375 -5.609375 C 2.421875 -5.609375 1.953125 -5.46875 1.5 -5.203125 L 0.859375 -4.8125 L 0.859375 -4.046875 L 1.171875 -3.953125 L 1.328125 -4.328125 C 1.5625 -4.890625 1.703125 -4.96875 2.25 -4.96875 C 3.375 -4.96875 3.84375 -4.53125 3.875 -3.4375 L 2.6875 -3.234375 C 1.0625 -2.921875 0.375 -2.359375 0.375 -1.328125 C 0.375 -0.390625 0.9375 0.140625 1.890625 0.140625 C 2.109375 0.140625 2.3125 0.109375 2.390625 0.046875 L 3.875 -0.984375 L 3.8125 0.03125 C 4.125 0.015625 4.4375 0 4.75 0 C 5.046875 0 5.328125 0.015625 5.625 0.03125 Z M 3.875 -1.484375 C 3.53125 -0.984375 2.765625 -0.53125 2.3125 -0.53125 C 1.828125 -0.53125 1.40625 -0.984375 1.40625 -1.5 C 1.40625 -1.9375 1.65625 -2.359375 2.015625 -2.578125 C 2.3125 -2.765625 2.96875 -2.921875 3.875 -3.0625 Z M 3.875 -1.484375 "/>
</g>
<g id="glyph-6-11">
<path d="M 6.84375 0.03125 L 6.84375 -0.328125 L 6.34375 -0.359375 C 5.9375 -0.375 5.90625 -0.453125 5.90625 -1.21875 L 5.90625 -3.53125 C 5.90625 -4.921875 5.25 -5.609375 3.90625 -5.609375 C 3.46875 -5.609375 3.21875 -5.515625 2.96875 -5.3125 L 2.0625 -4.515625 L 2.0625 -5.5625 L 1.953125 -5.609375 C 1.34375 -5.359375 0.71875 -5.1875 0.078125 -5.109375 L 0.078125 -4.78125 L 0.53125 -4.78125 C 1 -4.78125 1.046875 -4.703125 1.046875 -3.90625 L 1.046875 -1.21875 C 1.046875 -0.46875 1.015625 -0.375 0.609375 -0.359375 L 0.078125 -0.328125 L 0.078125 0.03125 C 0.5625 0.015625 1.0625 0 1.546875 0 C 2.046875 0 2.546875 0.015625 3.03125 0.03125 L 3.03125 -0.328125 L 2.5 -0.359375 C 2.09375 -0.375 2.0625 -0.46875 2.0625 -1.21875 L 2.0625 -3.75 C 2.0625 -4.296875 2.84375 -4.875 3.578125 -4.875 C 4.375 -4.875 4.90625 -4.28125 4.90625 -3.359375 L 4.90625 0.03125 C 5.21875 0.015625 5.53125 0 5.84375 0 C 6.1875 0 6.5 0.015625 6.84375 0.03125 Z M 6.84375 0.03125 "/>
</g>
<g id="glyph-6-12">
<path d="M 8 0.03125 L 8 -0.328125 C 7.609375 -0.359375 7.421875 -0.4375 7.265625 -0.640625 L 4.546875 -4.171875 C 5.21875 -4.34375 5.53125 -4.46875 5.921875 -4.75 C 6.546875 -5.1875 6.890625 -5.78125 6.890625 -6.484375 C 6.890625 -7.625 6.109375 -8.265625 4.546875 -8.265625 C 3.84375 -8.265625 3.125 -8.234375 2.421875 -8.234375 C 1.71875 -8.234375 1.046875 -8.25 0.34375 -8.265625 L 0.34375 -7.90625 L 0.84375 -7.875 C 1.390625 -7.84375 1.453125 -7.734375 1.453125 -6.796875 L 1.453125 -1.4375 C 1.453125 -0.484375 1.390625 -0.390625 0.84375 -0.359375 L 0.265625 -0.328125 L 0.265625 0.03125 C 0.84375 0.015625 1.421875 0 2.015625 0 C 2.59375 0 3.171875 0.015625 3.765625 0.03125 L 3.765625 -0.328125 L 3.1875 -0.359375 C 2.640625 -0.390625 2.578125 -0.484375 2.578125 -1.4375 L 2.578125 -7.671875 C 2.984375 -7.765625 3.34375 -7.8125 3.75 -7.8125 C 5 -7.8125 5.6875 -7.25 5.6875 -6.234375 C 5.6875 -5.125 4.8125 -4.4375 3.4375 -4.4375 L 3.078125 -4.4375 L 3.078125 -4.25 C 3.34375 -3.953125 3.4375 -3.828125 3.640625 -3.5625 C 4.53125 -2.359375 5.421875 -1.15625 6.328125 0.03125 C 6.59375 0.015625 6.859375 0 7.140625 0 C 7.421875 0 7.703125 0.015625 8 0.03125 Z M 8 0.03125 "/>
</g>
<g id="glyph-6-13">
<path d="M 3.234375 0.03125 L 3.234375 -0.328125 L 2.6875 -0.359375 C 2.28125 -0.375 2.25 -0.46875 2.25 -1.21875 L 2.25 -8.578125 L 2.140625 -8.671875 C 1.609375 -8.46875 1.21875 -8.375 0.28125 -8.234375 L 0.28125 -7.90625 L 0.9375 -7.90625 C 1.15625 -7.90625 1.25 -7.765625 1.25 -7.40625 L 1.25 -1.21875 C 1.25 -0.46875 1.203125 -0.375 0.796875 -0.359375 L 0.25 -0.328125 L 0.25 0.03125 C 0.75 0.015625 1.25 0 1.75 0 C 2.25 0 2.734375 0.015625 3.234375 0.03125 Z M 3.234375 0.03125 "/>
</g>
<g id="glyph-6-14">
<path d="M 3.8125 -5.21875 L 2.171875 -5.140625 L 2.171875 -5.59375 C 2.171875 -6.09375 2.21875 -6.53125 2.3125 -7.296875 L 2.15625 -7.421875 C 1.875 -7.25 1.515625 -7.09375 1.140625 -6.96875 C 1.1875 -6.609375 1.1875 -6.390625 1.1875 -6.03125 L 1.1875 -5.1875 L 0.265625 -4.765625 L 0.265625 -4.515625 L 1.171875 -4.5625 L 1.171875 -1.125 C 1.171875 -0.234375 1.5625 0.140625 2.484375 0.140625 C 2.765625 0.140625 3.046875 0.078125 3.125 0 L 3.6875 -0.640625 L 3.53125 -0.84375 C 3.234375 -0.671875 3.0625 -0.609375 2.828125 -0.609375 C 2.359375 -0.609375 2.171875 -0.84375 2.171875 -1.4375 L 2.171875 -4.5625 L 3.703125 -4.5625 Z M 3.8125 -5.21875 "/>
</g>
<g id="glyph-6-15">
<path d="M 6.4375 -5.15625 L 6.4375 -5.484375 C 6.078125 -5.46875 5.6875 -5.453125 5.3125 -5.453125 C 4.953125 -5.453125 4.5625 -5.46875 4.203125 -5.484375 L 4.203125 -5.15625 L 4.6875 -5.125 C 4.890625 -5.109375 4.984375 -5.015625 4.984375 -4.8125 C 4.984375 -4.609375 4.90625 -4.34375 4.75 -3.9375 L 4.25 -2.671875 L 3.5 -1 L 2.078125 -4.453125 C 2.015625 -4.59375 1.984375 -4.734375 1.984375 -4.859375 C 1.984375 -5.015625 2.0625 -5.109375 2.265625 -5.125 L 2.859375 -5.15625 L 2.859375 -5.484375 C 2.390625 -5.46875 1.921875 -5.453125 1.453125 -5.453125 C 0.984375 -5.453125 0.53125 -5.46875 0.078125 -5.484375 L 0.078125 -5.15625 L 0.484375 -5.125 C 0.6875 -5.109375 0.734375 -5.015625 0.84375 -4.734375 L 2.90625 0.078125 L 3.5 0.078125 C 3.578125 -0.3125 3.75 -0.6875 4 -1.21875 L 5.40625 -4.328125 C 5.671875 -4.9375 5.828125 -5.109375 6.078125 -5.125 Z M 6.4375 -5.15625 "/>
</g>
<g id="glyph-6-16">
<path d="M 6.9375 -6.421875 C 6.9375 -7.5625 6 -8.265625 4.484375 -8.265625 C 3.796875 -8.265625 3.125 -8.234375 2.453125 -8.234375 C 1.71875 -8.234375 1 -8.25 0.28125 -8.265625 L 0.28125 -7.90625 L 0.8125 -7.875 C 1.34375 -7.84375 1.453125 -7.6875 1.453125 -6.796875 L 1.453125 -1.4375 C 1.453125 -0.484375 1.390625 -0.390625 0.84375 -0.359375 L 0.265625 -0.328125 L 0.265625 0.03125 C 0.84375 0.015625 1.421875 0 2.015625 0 C 2.59375 0 3.171875 0.015625 3.765625 0.03125 L 3.765625 -0.328125 L 3.1875 -0.359375 C 2.640625 -0.390625 2.578125 -0.484375 2.578125 -1.4375 L 2.578125 -7.671875 C 3 -7.765625 3.34375 -7.8125 3.75 -7.8125 C 5.046875 -7.8125 5.734375 -7.21875 5.734375 -6.078125 C 5.734375 -5.015625 5.015625 -4.25 3.96875 -4.25 C 3.71875 -4.25 3.53125 -4.28125 3.234375 -4.375 L 3.34375 -3.9375 C 3.640625 -3.890625 3.796875 -3.875 4.046875 -3.875 C 5.671875 -3.875 6.9375 -4.984375 6.9375 -6.421875 Z M 6.9375 -6.421875 "/>
</g>
<g id="glyph-6-17">
<path d="M 4.9375 -0.546875 L 4.8125 -0.734375 C 4.375 -0.484375 4 -0.375 3.5625 -0.375 C 2.234375 -0.375 1.359375 -1.40625 1.359375 -2.984375 C 1.359375 -4.265625 1.953125 -4.984375 3.03125 -4.984375 C 3.5625 -4.984375 4.140625 -4.75 4.34375 -4.453125 L 4.4375 -3.71875 L 4.765625 -3.71875 C 4.765625 -4.265625 4.828125 -4.75 4.9375 -5.1875 C 4.453125 -5.46875 4.046875 -5.609375 3.546875 -5.609375 C 2.96875 -5.609375 2.3125 -5.375 1.59375 -4.921875 C 0.75 -4.40625 0.3125 -3.5625 0.3125 -2.515625 C 0.3125 -0.890625 1.453125 0.234375 3.046875 0.234375 C 3.671875 0.234375 4.5625 0.015625 4.6875 -0.171875 Z M 4.9375 -0.546875 "/>
</g>
<g id="glyph-6-18">
<path d="M 4.671875 -1.765625 C 4.671875 -2.140625 4.578125 -2.421875 4.34375 -2.65625 C 4.03125 -2.96875 3.640625 -3.09375 2.578125 -3.296875 C 1.609375 -3.484375 1.28125 -3.734375 1.28125 -4.28125 C 1.28125 -4.875 1.703125 -5.21875 2.421875 -5.21875 C 3.234375 -5.21875 3.84375 -4.796875 3.84375 -4.234375 L 3.84375 -3.953125 L 4.171875 -3.953125 C 4.1875 -4.65625 4.203125 -4.9375 4.234375 -5.3125 C 3.59375 -5.515625 3.171875 -5.609375 2.671875 -5.609375 C 1.296875 -5.609375 0.4375 -4.953125 0.4375 -3.875 C 0.4375 -3.296875 0.703125 -2.890625 1.25 -2.640625 C 1.578125 -2.5 2.21875 -2.3125 3.03125 -2.125 C 3.5625 -2.015625 3.796875 -1.75 3.796875 -1.296875 C 3.796875 -0.65625 3.1875 -0.203125 2.34375 -0.203125 C 1.46875 -0.203125 0.84375 -0.625 0.84375 -1.21875 L 0.84375 -1.703125 L 0.484375 -1.703125 C 0.484375 -0.890625 0.453125 -0.53125 0.359375 -0.046875 C 0.984375 0.15625 1.453125 0.234375 2 0.234375 C 3.5625 0.234375 4.671875 -0.59375 4.671875 -1.765625 Z M 4.671875 -1.765625 "/>
</g>
</g>
</defs>
<path fill="none" stroke-width="0.3985" stroke-linecap="butt" stroke-linejoin="miter" stroke="rgb(0%, 0%, 0%)" stroke-opacity="1" stroke-miterlimit="10" d="M -0.0019375 0.000375 L 179.955094 0.000375 " transform="matrix(1, 0, 0, -1, 25.666, 172.766)"/>
<path fill-rule="nonzero" fill="rgb(0%, 0%, 0%)" fill-opacity="1" stroke-width="0.3985" stroke-linecap="butt" stroke-linejoin="miter" stroke="rgb(0%, 0%, 0%)" stroke-opacity="1" stroke-miterlimit="10" d="M 3.761512 0.000375 C 3.300575 0.113656 1.269325 0.750375 -0.00020625 1.445688 L -0.00020625 -1.444937 C 1.269325 -0.749625 3.300575 -0.112906 3.761512 0.000375 Z M 3.761512 0.000375 " transform="matrix(1, 0, 0, -1, 205.6213, 172.766)"/>
<g fill="rgb(0%, 0%, 0%)" fill-opacity="1">
<use xlink:href="#glyph-0-0" x="214.625" y="176.906"/>
</g>
<path fill="none" stroke-width="0.3985" stroke-linecap="butt" stroke-linejoin="miter" stroke="rgb(0%, 0%, 0%)" stroke-opacity="1" stroke-miterlimit="10" d="M -0.0019375 0.000375 L -0.0019375 147.215219 " transform="matrix(1, 0, 0, -1, 25.666, 172.766)"/>
<path fill-rule="nonzero" fill="rgb(0%, 0%, 0%)" fill-opacity="1" stroke-width="0.3985" stroke-linecap="butt" stroke-linejoin="miter" stroke="rgb(0%, 0%, 0%)" stroke-opacity="1" stroke-miterlimit="10" d="M 3.762018 0.0019375 C 3.30108 0.111312 1.26983 0.751937 0.00029875 1.44725 L 0.00029875 -1.447281 C 1.26983 -0.751969 3.30108 -0.111344 3.762018 0.0019375 Z M 3.762018 0.0019375 " transform="matrix(0, -1, -1, 0, 25.666, 25.55108)"/>
<g fill="rgb(0%, 0%, 0%)" fill-opacity="1">
<use xlink:href="#glyph-0-1" x="21.524" y="16.673"/>
</g>
<path fill="none" stroke-width="0.79701" stroke-linecap="butt" stroke-linejoin="miter" stroke="rgb(23.765564%, 31.52771%, 35.998535%)" stroke-opacity="1" stroke-miterlimit="10" d="M 29.763688 133.937875 L 31.17775 127.867563 L 32.591813 122.324594 L 34.001969 117.242563 L 35.416031 112.562875 L 36.830094 108.246469 L 38.24025 104.246469 L 39.654313 100.531625 L 41.068375 97.074594 L 42.478531 93.848031 L 43.892594 90.824594 L 45.306656 87.988656 L 46.720719 85.3285 L 48.130875 82.820688 L 49.544938 80.461313 L 50.959 78.230844 L 52.369156 76.121469 L 53.783219 74.121469 L 55.197281 72.223031 L 56.611344 70.42225 L 58.0215 68.7035 L 59.435563 67.074594 L 60.849625 65.516 L 62.259781 64.027719 L 63.673844 62.60975 L 65.087906 61.250375 L 66.498063 59.949594 L 67.912125 58.7035 L 69.326188 57.504281 L 70.74025 56.355844 L 72.150406 55.250375 L 73.564469 54.191781 L 74.978531 53.168344 L 76.388688 52.187875 L 77.80275 51.238656 L 79.216813 50.324594 L 80.630875 49.441781 L 82.041031 48.590219 L 83.455094 47.769906 L 84.869156 46.973031 L 86.279313 46.2035 L 87.693375 45.461313 L 89.107438 44.738656 L 90.517594 44.039438 L 91.931656 43.363656 L 93.345719 42.707406 L 94.759781 42.070688 L 96.169938 41.4535 L 97.584 40.851938 L 98.998063 40.269906 L 100.408219 39.7035 L 101.822281 39.152719 L 103.236344 38.617563 L 104.650406 38.094125 L 106.060563 37.586313 L 107.474625 37.094125 L 108.888688 36.613656 L 110.298844 36.144906 L 111.712906 35.683969 L 113.126969 35.238656 L 114.537125 34.805063 L 115.951188 34.383188 L 117.36525 33.969125 L 118.779313 33.562875 L 120.189469 33.168344 L 121.603531 32.781625 L 123.017594 32.406625 L 124.42775 32.039438 L 125.841813 31.680063 L 127.255875 31.3285 L 128.666031 30.98475 L 130.080094 30.648813 L 131.494156 30.316781 L 132.908219 29.996469 L 134.318375 29.680063 L 135.732438 29.371469 L 137.1465 29.066781 L 138.556656 28.773813 L 139.970719 28.480844 L 141.384781 28.195688 L 142.798844 27.918344 L 144.209 27.644906 L 145.623063 27.375375 L 147.037125 27.113656 L 148.447281 26.855844 L 149.861344 26.601938 L 151.275406 26.351938 L 152.685563 26.10975 L 155.513688 25.633188 L 156.92775 25.402719 L 158.337906 25.176156 L 159.751969 24.9535 L 161.166031 24.73475 L 162.576188 24.519906 L 163.99025 24.308969 L 165.404313 24.101938 L 166.818375 23.898813 L 168.228531 23.695688 L 169.642594 23.500375 " transform="matrix(1, 0, 0, -1, 25.666, 172.766)"/>
<path fill="none" stroke-width="0.79701" stroke-linecap="butt" stroke-linejoin="miter" stroke="rgb(64.234924%, 35.939026%, 22.686768%)" stroke-opacity="1" stroke-miterlimit="10" d="M -0.0019375 89.293344 L 178.584 0.000375 " transform="matrix(1, 0, 0, -1, 25.666, 172.766)"/>
<path fill-rule="nonzero" fill="rgb(64.234924%, 35.939026%, 22.686768%)" fill-opacity="1" d="M 117.050781 128.121094 C 117.050781 126.964844 116.113281 126.027344 114.957031 126.027344 C 113.804688 126.027344 112.867188 126.964844 112.867188 128.121094 C 112.867188 129.273438 113.804688 130.210938 114.957031 130.210938 C 116.113281 130.210938 117.050781 129.273438 117.050781 128.121094 Z M 117.050781 128.121094 "/>
<path fill="none" stroke-width="0.3985" stroke-linecap="butt" stroke-linejoin="miter" stroke="rgb(50%, 50%, 50%)" stroke-opacity="1" stroke-dasharray="2.98883 1.99255" stroke-miterlimit="10" d="M 89.291031 0.000375 L 89.291031 44.644906 L -0.0019375 44.644906 " transform="matrix(1, 0, 0, -1, 25.666, 172.766)"/>
<g fill="rgb(0%, 0%, 0%)" fill-opacity="1">
<use xlink:href="#glyph-0-0" x="109.253" y="185.343"/>
</g>
<g fill="rgb(0%, 0%, 0%)" fill-opacity="1">
<use xlink:href="#glyph-1-0" x="116.02" y="187.136"/>
</g>
<g fill="rgb(0%, 0%, 0%)" fill-opacity="1">
<use xlink:href="#glyph-0-1" x="8.268" y="131.332"/>
</g>
<g fill="rgb(0%, 0%, 0%)" fill-opacity="1">
<use xlink:href="#glyph-1-0" x="16.601" y="133.126"/>
</g>
<g fill="rgb(64.234924%, 35.939026%, 22.686768%)" fill-opacity="1">
<use xlink:href="#glyph-0-2" x="142.067" y="100.442"/>
</g>
<path fill="none" stroke-width="0.705" stroke-linecap="butt" stroke-linejoin="miter" stroke="rgb(64.234924%, 35.939026%, 22.686768%)" stroke-opacity="1" stroke-miterlimit="10" d="M 0.00121875 -0.00184375 L 9.348875 -0.00184375 " transform="matrix(1, 0, 0, -1, 141.948, 105.463)"/>
<g fill="rgb(64.234924%, 35.939026%, 22.686768%)" fill-opacity="1">
<use xlink:href="#glyph-0-3" x="144.058" y="116.736"/>
</g>
<g fill="rgb(64.234924%, 35.939026%, 22.686768%)" fill-opacity="1">
<use xlink:href="#glyph-2-0" x="155.813" y="108.535"/>
</g>
<g fill="rgb(64.234924%, 35.939026%, 22.686768%)" fill-opacity="1">
<use xlink:href="#glyph-3-0" x="167.132" y="108.535"/>
<use xlink:href="#glyph-3-1" x="178.441619" y="108.535"/>
</g>
<g fill="rgb(64.234924%, 35.939026%, 22.686768%)" fill-opacity="1">
<use xlink:href="#glyph-3-2" x="186.009261" y="108.535"/>
</g>
<path fill="none" stroke-width="0.3985" stroke-linecap="butt" stroke-linejoin="miter" stroke="rgb(64.234924%, 35.939026%, 22.686768%)" stroke-opacity="1" stroke-miterlimit="10" d="M 110.919938 66.980844 C 105.291031 57.351938 100.732438 52.344125 95.3965 48.508188 " transform="matrix(1, 0, 0, -1, 25.666, 172.766)"/>
<path fill-rule="nonzero" fill="rgb(64.234924%, 35.939026%, 22.686768%)" fill-opacity="1" stroke-width="0.3985" stroke-linecap="butt" stroke-linejoin="miter" stroke="rgb(64.234924%, 35.939026%, 22.686768%)" stroke-opacity="1" stroke-miterlimit="10" d="M 3.760255 -0.00027199 C 3.299168 0.114465 1.269091 0.750098 -0.0010828 1.445958 L -0.0000209896 -1.445437 C 1.268797 -0.750319 3.299937 -0.112144 3.760255 -0.00027199 Z M 3.760255 -0.00027199 " transform="matrix(-0.81216, 0.58333, 0.58333, 0.81216, 121.0619, 124.25597)"/>
<g fill="rgb(64.234924%, 35.939026%, 22.686768%)" fill-opacity="1">
<use xlink:href="#glyph-0-3" x="204.2" y="163.02"/>
</g>
<g fill="rgb(64.234924%, 35.939026%, 22.686768%)" fill-opacity="1">
<use xlink:href="#glyph-0-1" x="209.806989" y="163.02"/>
</g>
<g fill="rgb(64.234924%, 35.939026%, 22.686768%)" fill-opacity="1">
<use xlink:href="#glyph-4-0" x="220.988" y="163.02"/>
</g>
<g fill="rgb(64.234924%, 35.939026%, 22.686768%)" fill-opacity="1">
<use xlink:href="#glyph-0-2" x="231.762" y="163.02"/>
</g>
<g fill="rgb(64.234924%, 35.939026%, 22.686768%)" fill-opacity="1">
<use xlink:href="#glyph-0-0" x="241.230518" y="163.02"/>
</g>
<g fill="rgb(64.234924%, 35.939026%, 22.686768%)" fill-opacity="1">
<use xlink:href="#glyph-2-0" x="251.318" y="163.02"/>
</g>
<g fill="rgb(64.234924%, 35.939026%, 22.686768%)" fill-opacity="1">
<use xlink:href="#glyph-0-4" x="262.876" y="163.02"/>
</g>
<g fill="rgb(64.234924%, 35.939026%, 22.686768%)" fill-opacity="1">
<use xlink:href="#glyph-1-0" x="271.089" y="164.813"/>
</g>
<path fill="none" stroke-width="0.79701" stroke-linecap="butt" stroke-linejoin="miter" stroke="rgb(84.999084%, 42.498779%, 0%)" stroke-opacity="1" stroke-miterlimit="10" d="M -0.0019375 133.937875 L 119.056656 0.000375 " transform="matrix(1, 0, 0, -1, 25.666, 172.766)"/>
<path fill-rule="nonzero" fill="rgb(84.999084%, 42.498779%, 0%)" fill-opacity="1" d="M 87.285156 105.796875 C 87.285156 104.640625 86.351562 103.703125 85.195312 103.703125 C 84.039062 103.703125 83.101562 104.640625 83.101562 105.796875 C 83.101562 106.953125 84.039062 107.890625 85.195312 107.890625 C 86.351562 107.890625 87.285156 106.953125 87.285156 105.796875 Z M 87.285156 105.796875 "/>
<path fill="none" stroke-width="0.3985" stroke-linecap="butt" stroke-linejoin="miter" stroke="rgb(50%, 50%, 50%)" stroke-opacity="1" stroke-dasharray="2.98883 1.99255" stroke-miterlimit="10" d="M 59.529313 0.000375 L 59.529313 66.969125 L -0.0019375 66.969125 " transform="matrix(1, 0, 0, -1, 25.666, 172.766)"/>
<g fill="rgb(0%, 0%, 0%)" fill-opacity="1">
<use xlink:href="#glyph-0-0" x="79.49" y="185.343"/>
</g>
<g fill="rgb(0%, 0%, 0%)" fill-opacity="1">
<use xlink:href="#glyph-1-1" x="86.256" y="187.136"/>
</g>
<g fill="rgb(0%, 0%, 0%)" fill-opacity="1">
<use xlink:href="#glyph-0-1" x="8.268" y="109.08"/>
</g>
<g fill="rgb(0%, 0%, 0%)" fill-opacity="1">
<use xlink:href="#glyph-1-1" x="16.601" y="110.873"/>
</g>
<g fill="rgb(84.999084%, 42.498779%, 0%)" fill-opacity="1">
<use xlink:href="#glyph-0-2" x="90.693" y="56.93"/>
</g>
<g fill="rgb(84.999084%, 42.498779%, 0%)" fill-opacity="1">
<use xlink:href="#glyph-5-0" x="99.747" y="52.59"/>
</g>
<path fill="none" stroke-width="0.705" stroke-linecap="butt" stroke-linejoin="miter" stroke="rgb(84.999084%, 42.498779%, 0%)" stroke-opacity="1" stroke-miterlimit="10" d="M 0.00121875 0.00178125 L 12.610594 0.00178125 " transform="matrix(1, 0, 0, -1, 90.573, 61.951)"/>
<g fill="rgb(84.999084%, 42.498779%, 0%)" fill-opacity="1">
<use xlink:href="#glyph-0-3" x="92.684" y="73.224"/>
</g>
<g fill="rgb(84.999084%, 42.498779%, 0%)" fill-opacity="1">
<use xlink:href="#glyph-5-0" x="97.876" y="69.769"/>
</g>
<g fill="rgb(84.999084%, 42.498779%, 0%)" fill-opacity="1">
<use xlink:href="#glyph-2-0" x="107.699" y="65.023"/>
</g>
<g fill="rgb(84.999084%, 42.498779%, 0%)" fill-opacity="1">
<use xlink:href="#glyph-3-0" x="119.017" y="65.023"/>
<use xlink:href="#glyph-3-1" x="130.326619" y="65.023"/>
</g>
<g fill="rgb(84.999084%, 42.498779%, 0%)" fill-opacity="1">
<use xlink:href="#glyph-3-2" x="137.894261" y="65.023"/>
</g>
<g fill="rgb(84.999084%, 42.498779%, 0%)" fill-opacity="1">
<use xlink:href="#glyph-5-0" x="145.048" y="60.188"/>
</g>
<path fill="none" stroke-width="0.3985" stroke-linecap="butt" stroke-linejoin="miter" stroke="rgb(84.999084%, 42.498779%, 0%)" stroke-opacity="1" stroke-miterlimit="10" d="M 93.279313 95.262094 C 82.892594 82.48475 75.107438 76.2035 64.509781 70.8285 " transform="matrix(1, 0, 0, -1, 25.666, 172.766)"/>
<path fill-rule="nonzero" fill="rgb(84.999084%, 42.498779%, 0%)" fill-opacity="1" stroke-width="0.3985" stroke-linecap="butt" stroke-linejoin="miter" stroke="rgb(84.999084%, 42.498779%, 0%)" stroke-opacity="1" stroke-miterlimit="10" d="M 3.761718 0.0014608 C 3.301138 0.112389 1.269513 0.752841 -0.00012615 1.444873 L 0.000934651 -1.446426 C 1.269721 -0.749584 3.299849 -0.114714 3.761718 0.0014608 Z M 3.761718 0.0014608 " transform="matrix(-0.89185, 0.45227, 0.45227, 0.89185, 90.17454, 101.93801)"/>
<g fill="rgb(84.999084%, 42.498779%, 0%)" fill-opacity="1">
<use xlink:href="#glyph-0-3" x="29.798" y="33.253"/>
</g>
<g fill="rgb(84.999084%, 42.498779%, 0%)" fill-opacity="1">
<use xlink:href="#glyph-5-0" x="34.991" y="28.913"/>
</g>
<g fill="rgb(84.999084%, 42.498779%, 0%)" fill-opacity="1">
<use xlink:href="#glyph-0-1" x="38.665" y="33.253"/>
</g>
<g fill="rgb(84.999084%, 42.498779%, 0%)" fill-opacity="1">
<use xlink:href="#glyph-4-0" x="49.846" y="33.253"/>
</g>
<g fill="rgb(84.999084%, 42.498779%, 0%)" fill-opacity="1">
<use xlink:href="#glyph-0-2" x="60.62" y="33.253"/>
</g>
<g fill="rgb(84.999084%, 42.498779%, 0%)" fill-opacity="1">
<use xlink:href="#glyph-5-0" x="69.674" y="28.913"/>
</g>
<g fill="rgb(84.999084%, 42.498779%, 0%)" fill-opacity="1">
<use xlink:href="#glyph-0-0" x="73.348" y="33.253"/>
</g>
<g fill="rgb(84.999084%, 42.498779%, 0%)" fill-opacity="1">
<use xlink:href="#glyph-2-0" x="83.436" y="33.253"/>
</g>
<g fill="rgb(84.999084%, 42.498779%, 0%)" fill-opacity="1">
<use xlink:href="#glyph-0-4" x="94.994" y="33.253"/>
</g>
<g fill="rgb(84.999084%, 42.498779%, 0%)" fill-opacity="1">
<use xlink:href="#glyph-1-1" x="103.207" y="35.046"/>
</g>
<g fill="rgb(23.765564%, 31.52771%, 35.998535%)" fill-opacity="1">
<use xlink:href="#glyph-0-5" x="173.5" y="135.512"/>
</g>
<g fill="rgb(23.765564%, 31.52771%, 35.998535%)" fill-opacity="1">
<use xlink:href="#glyph-2-0" x="185.369" y="135.512"/>
</g>
<path fill="none" stroke-width="0.705" stroke-linecap="butt" stroke-linejoin="miter" stroke="rgb(23.765564%, 31.52771%, 35.998535%)" stroke-opacity="1" stroke-miterlimit="10" d="M 0.0005 0.0015625 L 8.309094 0.0015625 " transform="matrix(1, 0, 0, -1, 196.687, 124.65)"/>
<g fill="rgb(23.765564%, 31.52771%, 35.998535%)" fill-opacity="1">
<use xlink:href="#glyph-0-5" x="196.448" y="135.512"/>
</g>
<g fill="rgb(0%, 0%, 0%)" fill-opacity="1">
<use xlink:href="#glyph-6-0" x="50.561" y="211.37"/>
</g>
<g fill="rgb(0%, 0%, 0%)" fill-opacity="1">
<use xlink:href="#glyph-6-1" x="56.968987" y="211.37"/>
<use xlink:href="#glyph-6-2" x="60.44795" y="211.37"/>
<use xlink:href="#glyph-6-3" x="67.095042" y="211.37"/>
<use xlink:href="#glyph-6-4" x="74.304027" y="211.37"/>
<use xlink:href="#glyph-6-5" x="79.026331" y="211.37"/>
</g>
<g fill="rgb(0%, 0%, 0%)" fill-opacity="1">
<use xlink:href="#glyph-6-6" x="87.741672" y="211.37"/>
<use xlink:href="#glyph-6-7" x="93.719272" y="211.37"/>
</g>
<g fill="rgb(0%, 0%, 0%)" fill-opacity="1">
<use xlink:href="#glyph-6-8" x="99.696872" y="211.37"/>
<use xlink:href="#glyph-6-9" x="108.173109" y="211.37"/>
<use xlink:href="#glyph-6-10" x="115.131035" y="211.37"/>
<use xlink:href="#glyph-6-11" x="121.108635" y="211.37"/>
<use xlink:href="#glyph-6-2" x="128.066562" y="211.37"/>
</g>
<g fill="rgb(0%, 0%, 0%)" fill-opacity="1">
<use xlink:href="#glyph-6-5" x="134.474549" y="211.37"/>
</g>
<g fill="rgb(0%, 0%, 0%)" fill-opacity="1">
<use xlink:href="#glyph-6-1" x="143.18989" y="211.37"/>
<use xlink:href="#glyph-6-11" x="146.668853" y="211.37"/>
</g>
<g fill="rgb(0%, 0%, 0%)" fill-opacity="1">
<use xlink:href="#glyph-6-12" x="156.615579" y="211.37"/>
</g>
<g fill="rgb(0%, 0%, 0%)" fill-opacity="1">
<use xlink:href="#glyph-6-5" x="164.362549" y="211.37"/>
<use xlink:href="#glyph-6-13" x="170.08909" y="211.37"/>
<use xlink:href="#glyph-6-10" x="173.568053" y="211.37"/>
<use xlink:href="#glyph-6-14" x="179.545653" y="211.37"/>
<use xlink:href="#glyph-6-1" x="183.443048" y="211.37"/>
<use xlink:href="#glyph-6-15" x="186.922011" y="211.37"/>
</g>
<g fill="rgb(0%, 0%, 0%)" fill-opacity="1">
<use xlink:href="#glyph-6-5" x="193.198491" y="211.37"/>
</g>
<g fill="rgb(0%, 0%, 0%)" fill-opacity="1">
<use xlink:href="#glyph-6-16" x="201.913832" y="211.37"/>
<use xlink:href="#glyph-6-4" x="209.134773" y="211.37"/>
<use xlink:href="#glyph-6-1" x="213.857077" y="211.37"/>
<use xlink:href="#glyph-6-17" x="217.33604" y="211.37"/>
<use xlink:href="#glyph-6-5" x="222.644149" y="211.37"/>
<use xlink:href="#glyph-6-18" x="228.37069" y="211.37"/>
</g>
</svg>
